# xmcd
#
# Track frame offsets: 
#        150
#        7976
#        20555
#        32409
#        43739
#        52689
#        61791
#        73231
#        82947
#        93902
#        104997
#        113889
#        123678
#        133683
#        145393
#        155975
#        163842
#        174886
#        185122
#        193737
#        206175
#        214640
#        222928
#        232517
#        240376
#
# Disc length: 3343 seconds
#
# Revision: 0
# Processed by: cddbd v1.5.2PL0 Copyright (c) Steve Scherf et al.
# Submitted via: ExactAudioCopyFreeDBPlugin 1.0
#
DISCID=660d0d19
DTITLE=Cliff Richard - Elvis and Friends CD 3
DYEAR=1900
DGENRE=Rock and Roll
TTITLE0=Twenty Flight Rock
TTITLE1=Apron Strings
TTITLE2=Livin´ Doll
TTITLE3=Schoolboy Crush
TTITLE4=My Feet Hit The Ground
TTITLE5=Never Mind
TTITLE6=Little Things Mean A Lot
TTITLE7=High Class Baby
TTITLE8=The Shrine On
TTITLE9=Mean Woman Blues
TTITLE10=Mean Streak
TTITLE11=The Snake And
TTITLE12=Don´t Bug Me Baby
TTITLE13=Travelin´Light
TTITLE14=Move It
TTITLE15=Mad About You
TTITLE16=Noturning Back
TTITLE17=Here Comes Summer
TTITLE18=Dynamite
TTITLE19=The Touch Of Your Lips
TTITLE20=Pointed Toe Shoes
TTITLE21=I´m Walkin´
TTITLE22=Livin´Lovin´Doll
TTITLE23=Blue Suede Shoes
TTITLE24=Steady With You
EXTD=
EXTT0=
EXTT1=
EXTT2=
EXTT3=
EXTT4=
EXTT5=
EXTT6=
EXTT7=
EXTT8=
EXTT9=
EXTT10=
EXTT11=
EXTT12=
EXTT13=
EXTT14=
EXTT15=
EXTT16=
EXTT17=
EXTT18=
EXTT19=
EXTT20=
EXTT21=
EXTT22=
EXTT23=
EXTT24=
PLAYORDER=
